<svg width="80" height="87" viewBox="0 0 80 87" fill="none" xmlns="http://www.w3.org/2000/svg">
<rect x="19.9769" y="1.92773" width="58.1781" height="63.2872" rx="10" transform="rotate(2.75299 19.9769 1.92773)" stroke="#72B85F" stroke-width="4"/>
<rect x="21.5487" y="4.05518" width="54.1781" height="59.2872" rx="8" transform="rotate(2.75299 21.5487 4.05518)" fill="#72B85F" stroke="#EAFBC8" stroke-width="4"/>
<rect x="1.22061" y="22.5053" width="58.1781" height="63.2872" rx="10" transform="rotate(-7.52797 1.22061 22.5053)" stroke="#72B85F" stroke-width="4"/>
<rect x="3.14679" y="24.3181" width="54.1781" height="59.2872" rx="8" transform="rotate(-7.52797 3.14679 24.3181)" fill="#72B85F" stroke="#EAFBC8" stroke-width="4"/>
<path d="M30.3328 32.5612C30.4388 32.9029 32.4654 39.4316 32.8059 41.9832C33.3251 45.8739 31.6329 48.9239 28.7324 50.4467L32.0533 68.0313C32.2412 69.0435 31.5477 70.0144 30.5238 70.151L25.7754 70.7847C24.759 70.9203 23.8287 70.1737 23.7436 69.1402L22.337 51.3001C19.1313 50.5922 16.7049 48.0843 16.1866 44.2011C15.8451 41.6421 16.0898 34.8178 16.1025 34.4602C16.1384 32.9184 19.259 32.4792 19.6673 34.0678L21.069 44.5717C21.1992 44.8117 22.2211 44.6602 22.2561 44.4133C22.1088 42.5173 21.4604 33.9799 21.442 33.7855C21.4803 32.2055 24.5519 31.7956 24.9958 33.3112C25.0375 33.5101 26.642 41.9124 26.9971 43.7806C27.0956 44.0097 28.1289 43.887 28.1842 43.6222L26.7824 33.1182C26.7609 31.4857 29.8938 31.0827 30.3328 32.5612V32.5612ZM42.0129 52.6343L42.7376 66.5525C42.7875 67.6058 43.7302 68.3886 44.7689 68.25L48.9237 67.6955C49.9105 67.5638 50.5981 66.6619 50.4661 65.6725L45.8598 31.1554C45.7287 30.1734 44.8276 29.4759 43.8409 29.6076C37.7199 30.4245 29.1865 45.0784 42.0129 52.6343Z" fill="#003F2C"/>
</svg>
