<svg width="223" height="130" viewBox="0 0 223 130" fill="none" xmlns="http://www.w3.org/2000/svg">
<rect x="110.834" y="2.019" width="88.7769" height="96.4887" rx="18.5" transform="rotate(11.3076 110.834 2.019)" stroke="#72B85F" stroke-width="7"/>
<rect x="113.08" y="6.11316" width="81.7769" height="89.4887" rx="15" transform="rotate(11.3076 113.08 6.11316)" fill="#72B85F" stroke="#EAFBC8" stroke-width="6"/>
<rect x="76.722" y="29.4917" width="88.7769" height="96.4887" rx="18.5" transform="rotate(0.136765 76.722 29.4917)" stroke="#72B85F" stroke-width="7"/>
<rect x="80.2136" y="33.0732" width="81.7769" height="89.4887" rx="15" transform="rotate(0.136765 80.2136 33.0732)" fill="#72B85F" stroke="#EAFBC8" stroke-width="6"/>
<rect x="-3.23724" y="45.1183" width="88.7769" height="96.4887" rx="18.5" transform="rotate(-32.5673 -3.23724 45.1183)" stroke="#72B85F" stroke-width="7"/>
<rect x="1.21924" y="46.5131" width="81.7769" height="89.4887" rx="15" transform="rotate(-32.5673 1.21924 46.5131)" fill="#72B85F" stroke="#EAFBC8" stroke-width="6"/>
<rect x="142.428" y="4.68944" width="88.7769" height="96.4887" rx="18.5" transform="rotate(22.8396 142.428 4.68944)" stroke="#72B85F" stroke-width="7"/>
<rect x="143.811" y="9.1499" width="81.7769" height="89.4887" rx="15" transform="rotate(22.8396 143.811 9.1499)" fill="#72B85F" stroke="#EAFBC8" stroke-width="6"/>
<rect x="36.1289" y="30.8457" width="88.7769" height="96.4887" rx="18.5" transform="rotate(-21.263 36.1289 30.8457)" stroke="#72B85F" stroke-width="7"/>
<rect x="40.2256" y="33.0868" width="81.7769" height="89.4887" rx="15" transform="rotate(-21.263 40.2256 33.0868)" fill="#72B85F" stroke="#EAFBC8" stroke-width="6"/>
<rect x="110.834" y="2.019" width="88.7769" height="96.4887" rx="18.5" transform="rotate(11.3076 110.834 2.019)" stroke="#72B85F" stroke-width="7"/>
<rect x="113.08" y="6.11316" width="81.7769" height="89.4887" rx="15" transform="rotate(11.3076 113.08 6.11316)" fill="#72B85F" stroke="#EAFBC8" stroke-width="6"/>
<rect x="80.2136" y="33.0732" width="81.7769" height="89.4887" rx="15" transform="rotate(0.136765 80.2136 33.0732)" fill="#72B85F" stroke="#EAFBC8" stroke-width="6"/>
<path d="M119.303 50.5616C119.385 51.0954 120.944 61.2954 120.879 65.1804C120.781 71.1042 117.57 75.2767 112.899 76.8984L113.907 103.891C113.961 105.444 112.708 106.738 111.149 106.712L103.919 106.591C102.371 106.566 101.15 105.242 101.255 103.681L103.161 76.7364C98.5355 74.96 95.4769 70.6718 95.5753 64.7593C95.6401 60.863 97.5375 50.7319 97.6368 50.201C98.0365 47.9078 102.793 47.9529 103.046 50.4157L102.78 66.4087C102.92 66.7963 104.479 66.7996 104.587 66.4388C104.793 63.5758 105.742 50.6871 105.758 50.3928C106.17 48.0431 110.847 48.1209 111.169 50.4829C111.187 50.7891 111.695 63.6907 111.805 66.5589C111.901 66.9231 113.471 66.9718 113.613 66.589L113.879 50.5959C114.213 48.1543 118.98 48.2563 119.303 50.5616ZM132.23 83.1456L130.187 104.083C130.025 105.666 131.256 107.046 132.838 107.073L139.164 107.178C140.666 107.203 141.895 106.011 141.92 104.505L142.795 51.9495C142.82 50.4544 141.631 49.211 140.129 49.186C130.809 49.031 114.782 68.9877 132.23 83.1456Z" fill="#003F2C"/>
</svg>
