<svg width="271" height="85" viewBox="0 0 271 85" fill="none" xmlns="http://www.w3.org/2000/svg">
<path d="M103.676 53.4016C103.944 52.2149 104.063 51.2258 104.034 50.4343C104.005 49.6429 103.765 49.0033 103.314 48.5157C102.863 48.004 102.29 47.7611 101.594 47.7868C100.923 47.8117 100.372 48.1684 99.9408 48.8568C99.51 49.5452 99.3106 50.3211 99.3426 51.1846C99.4048 52.8634 100.417 54.2669 102.381 55.395C104.345 56.571 105.686 57.422 106.402 57.9478C107.118 58.4737 107.628 58.9591 107.933 59.4041C108.696 60.5527 109.1 61.7505 109.147 62.9976C109.227 65.1562 108.559 66.9101 107.144 68.2594C105.752 69.5838 104.145 70.2798 102.322 70.3474C100.164 70.4273 98.3191 69.5831 96.7886 67.8145C95.6844 66.5345 94.6522 64.9276 93.692 62.9939L97.1189 61.1737C97.7239 62.5923 98.4527 63.7901 99.3055 64.7672C100.181 65.7195 101.087 66.1782 102.022 66.1436C102.622 66.1214 103.154 65.9095 103.62 65.508C104.085 65.1065 104.304 64.522 104.275 63.7545C104.246 62.9631 103.919 62.2427 103.295 61.5934C102.67 60.944 101.841 60.2903 100.808 59.6321C99.7753 58.9739 98.9749 58.4391 98.4073 58.0279C97.8388 57.5926 97.2059 57.0397 96.5086 56.369C95.1877 55.0731 94.4886 53.3818 94.4113 51.2952C94.3331 49.1847 94.9993 47.3948 96.4098 45.9255C97.8195 44.4323 99.5317 43.6484 101.546 43.5737C103.561 43.4991 105.281 44.2159 106.705 45.7242C108.154 47.2316 108.909 48.8127 108.971 50.4676C109.031 52.0984 108.771 53.513 108.191 54.7113L103.676 53.4016ZM119.867 69.7693C117.588 69.8538 115.62 68.906 113.961 66.9261C112.326 64.9212 111.431 61.8323 111.276 57.6591C111.121 53.462 111.846 50.0128 113.451 47.3115C115.08 44.6093 117.058 43.2151 119.384 43.1289C121.71 43.0428 123.679 44.0025 125.291 46.0082C126.926 48.013 127.821 51.09 127.974 55.2392C128.128 59.3883 127.391 62.826 125.763 65.5521C124.134 68.2783 122.169 69.684 119.867 69.7693ZM119.579 47.4087C118.523 47.4478 117.647 48.4169 116.948 50.3161C116.249 52.1912 115.952 54.5438 116.057 57.3739C116.161 60.18 116.562 62.2545 117.26 63.5976C117.982 64.9158 118.834 65.5567 119.817 65.5203C120.801 65.4838 121.629 64.5165 122.304 62.6182C123.002 60.7191 123.299 58.3664 123.195 55.5604C123.09 52.7303 122.689 50.6557 121.992 49.3367C121.318 48.0167 120.514 47.374 119.579 47.4087ZM131.471 68.4388C131.569 62.6712 131.535 57.5329 131.368 53.024C131.201 48.5151 131.079 45.5536 131.003 44.1394C133.595 42.7945 136.318 42.0692 139.172 41.9635C141.282 41.8853 143.07 42.4915 144.535 43.7821C146.024 45.0719 146.813 46.9399 146.904 49.3863C147.009 52.2163 145.107 55.0126 141.199 57.7753C143.482 60.4285 145.824 63.3558 148.225 66.5571L144.866 69.2393C143.27 67.0169 140.422 63.3999 136.322 58.3882C136.387 62.0844 136.407 65.554 136.383 68.7971L131.471 68.4388ZM136.339 55.9379C138.083 55.0327 139.556 53.9455 140.758 52.6761C141.959 51.3827 142.54 50.2324 142.503 49.2251C142.466 48.2178 142.137 47.4494 141.517 46.92C140.921 46.3897 140.143 46.1424 139.184 46.1779C138.225 46.2135 137.177 46.4564 136.041 46.9068C136.191 50.96 136.29 53.9704 136.339 55.9379ZM153.349 67.376C152.951 63.1398 152.695 59.4507 152.578 56.3089C152.461 53.1431 152.411 49.8427 152.428 46.4077L148.061 47.1819L147.115 43.0381C149.45 42.5433 151.766 42.1573 154.061 41.8801L160.775 41.2711L161.607 45.239C160.29 45.3598 158.807 45.5229 157.158 45.7281C157.142 49.187 157.187 52.3555 157.294 55.2336C157.4 58.1116 157.601 62.235 157.896 67.6037L153.349 67.376ZM183.441 65.8287L182.428 60.8588L177.075 61.2732L175.959 68.0872L170.906 67.8422L176.38 41.5215L183.056 41.8505L188.673 66.0671L183.441 65.8287ZM179.54 46.1236L177.688 57.3959L181.712 57.1027L179.54 46.1236ZM200.04 65.79C199.617 59.5614 199.347 54.8642 199.229 51.6984C199.112 48.5325 199.191 45.1433 199.465 41.5307L206.248 41.8197C207.2 44.8105 208.244 49.0107 209.381 54.4203C210.562 49.9816 211.573 45.1889 212.415 40.0422L219.237 40.4018C219.703 47.8056 220 53.2223 220.127 56.652C220.253 60.0576 220.258 63.0956 220.141 65.7657L215.195 65.4807C215.394 62.4472 215.421 56.0338 215.274 46.2405L214.985 46.2152C214.78 47.1595 214.456 48.7806 214.013 51.0786C213.084 55.8442 212.166 59.913 211.259 63.2849L207.974 63.1184C207.313 60.8373 206.532 57.8882 205.629 54.2712C204.75 50.6292 204.074 47.9524 203.602 46.2407L203.313 46.2154C203.826 54.2179 204.323 60.828 204.804 66.0458L200.04 65.79ZM224.119 64.8258C223.882 61.0399 223.701 57.4562 223.576 54.0745C223.451 50.6928 223.48 46.2847 223.663 40.8502C227.741 40.0747 231.734 39.6145 235.644 39.4697L235.808 43.8946C233.097 43.995 230.582 44.1723 228.262 44.4264C228.266 47.1161 228.282 49.1809 228.312 50.6208C230.124 50.2894 232.277 50.0536 234.77 49.9132L235.6 53.8451C233.994 53.9287 231.59 54.1978 228.389 54.6527C228.495 57.5307 228.584 59.6049 228.655 60.8751C230.736 60.6299 233.217 60.1777 236.098 59.5186L236.857 63.4532C234.853 64.4641 232.46 65.0211 229.677 65.1242L224.119 64.8258ZM250.192 63.3554L249.179 58.3855L243.827 58.7999L242.71 65.6139L237.658 65.3689L243.131 39.0481L249.807 39.3771L255.424 63.5938L250.192 63.3554ZM246.291 43.6503L244.439 54.9226L248.463 54.6294L246.291 43.6503ZM259.105 63.1692C258.61 58.2401 258.287 53.725 258.135 49.6238C257.982 45.4987 257.976 41.7523 258.115 38.3849L262.916 38.6393C262.709 42.7778 262.675 46.7297 262.815 50.4952C262.954 54.2606 263.117 57.0284 263.302 58.7988C264.161 58.6469 266.275 58.3284 269.643 57.8433L270.517 61.9898C268.727 62.2723 266.198 62.7263 262.931 63.3517L259.105 63.1692Z" fill="#003F2C"/>
<rect x="17.977" y="1.92773" width="58.1781" height="63.2872" rx="10" transform="rotate(2.75299 17.977 1.92773)" stroke="#72B85F" stroke-width="4"/>
<rect x="19.5487" y="4.05518" width="54.1781" height="59.2872" rx="8" transform="rotate(2.75299 19.5487 4.05518)" fill="#72B85F" stroke="#EAFBC8" stroke-width="4"/>
<rect x="1" y="24.9565" width="54.1782" height="59.2873" rx="8" transform="rotate(-8.41786 1 24.9565)" fill="#72B85F" stroke="#EAFBC8" stroke-width="4"/>
<path d="M28.3328 32.5612C28.4388 32.9029 30.4654 39.4316 30.8059 41.9832C31.3251 45.8739 29.6329 48.9239 26.7324 50.4467L30.0533 68.0313C30.2412 69.0435 29.5477 70.0144 28.5238 70.151L23.7754 70.7847C22.759 70.9203 21.8287 70.1737 21.7436 69.1402L20.337 51.3001C17.1313 50.5922 14.7049 48.0843 14.1866 44.2011C13.8451 41.6421 14.0898 34.8178 14.1025 34.4602C14.1384 32.9184 17.259 32.4792 17.6673 34.0678L19.069 44.5717C19.1992 44.8117 20.2211 44.6602 20.2561 44.4133C20.1088 42.5173 19.4604 33.9799 19.442 33.7855C19.4803 32.2055 22.5519 31.7956 22.9958 33.3112C23.0375 33.5101 24.642 41.9124 24.9971 43.7806C25.0956 44.0097 26.1289 43.887 26.1842 43.6222L24.7824 33.1182C24.7609 31.4857 27.8938 31.0827 28.3328 32.5612ZM40.0129 52.6343L40.7376 66.5525C40.7875 67.6058 41.7302 68.3886 42.7689 68.25L46.9237 67.6955C47.9105 67.5638 48.5981 66.6619 48.4661 65.6725L43.8598 31.1554C43.7287 30.1734 42.8276 29.4759 41.8409 29.6076C35.7199 30.4245 27.1865 45.0784 40.0129 52.6343Z" fill="#003F2C"/>
</svg>
